<svg xmlns="http://www.w3.org/2000/svg"  x="0px" y="0px" viewBox="0 0 256 256">
<g><g><g><path fill="#000000" d="M106.3,26.5c-2.7,1.3-5.2,4.4-5.9,7.4c-0.4,1.6-0.5,7.4-0.4,17.1c0.1,14.6,0.1,14.7,1.3,16.8c4.3,7.6,14.9,7.5,18.7-0.2l1.2-2.5l-0.1-16.3L121,32.5l-1.3-2C117,26.4,110.6,24.5,106.3,26.5z"/><path fill="#000000" d="M190.3,27.8c-2.8,1.4-5,4-5.8,6.9c-0.3,1.2-0.4,7.3-0.3,16.6l0.1,14.8l1.4,2.3c1.9,3.1,5,4.9,8.6,5.2c2.4,0.2,3.1,0,5.3-1.1c1.7-0.8,3.1-2,4-3.4l1.4-2.1V50.2V33.3l-1.4-2.1c-0.9-1.3-2.3-2.5-4-3.4C196.4,26.2,193.6,26.2,190.3,27.8z"/><path fill="#000000" d="M61.7,88.8c0,24.6,0.2,44.6,0.4,44.5s2.7-1.4,5.7-2.9l5.3-2.7v-19.8V88h80.3h80.3v47.7v47.7h-65.2h-65.2l0,3.6c0,2-0.2,4.9-0.4,6.4l-0.3,2.7h71.7H246v-76.1V44.1h-17h-17l-0.1,12.1l-0.1,12.2l-1.3,2.5c-1.7,3.2-4.4,5.9-7.8,7.5c-2.3,1.1-3.3,1.3-6.9,1.3c-3.6,0-4.6-0.2-6.9-1.2c-3.7-1.7-6.3-4.3-8.1-7.9l-1.6-3.2L179,55.8l-0.2-11.7h-25.7h-25.7l-0.1,11.7c-0.1,11.6-0.1,11.7-1.4,14.1c-3.3,6.2-9.6,9.7-16.4,9c-4.1-0.4-7.5-2.1-10.4-5.2c-3.7-4.1-4-5.3-4.3-18.3l-0.2-11.2H78.2H61.7L61.7,88.8L61.7,88.8z"/><path fill="#000000" d="M126,110.2v9.9h9.5h9.5v-9.9v-9.9h-9.5H126V110.2z"/><path fill="#000000" d="M153.4,110.7v9.9h9.5h9.5v-9.9v-9.9h-9.5h-9.5V110.7z"/><path fill="#000000" d="M180.3,110.7v9.9h9.5h9.5v-9.9v-9.9h-9.5h-9.5V110.7z"/><path fill="#000000" d="M100.4,136v10.2h9.5h9.5V136v-10.2h-9.5h-9.5V136L100.4,136z"/><path fill="#000000" d="M126.4,136v10.2h9.5h9.5V136v-10.2h-9.5h-9.5V136z"/><path fill="#000000" d="M153.8,135.8v9.9h9.5h9.5v-9.9v-9.9h-9.5h-9.5V135.8z"/><path fill="#000000" d="M180.3,136v10.2h9.5h9.5V136v-10.2h-9.5h-9.5V136z"/><path fill="#000000" d="M72.6,138.3c-2.4,0.9-4.9,3.1-5.9,5.3c-0.6,1.5-1.2,2.1-1.8,2.1c-4.9,0-14.7,3.9-21,8.4c-5.8,4.1-13.6,12-17.8,18l-0.7,1l-2.9-1c-4.7-1.7-4.9-1.6-9.2,7.9c-3.8,8.4-4,9.5-2.3,11.2C12,192.1,85,227,86,227c1.7,0,3.1-1.2,4.2-3.5c4.8-10.1,6-12.8,6-13.7c0-1.6-1.3-3-3.7-4.3l-2.2-1.1l1.1-6.3c1.5-8.7,1.6-19.3,0.1-26.3c-1.3-6-3.2-11.2-5.5-14.7c-1.6-2.4-1.7-2.7-1.1-4c0.9-2,1.1-6.3,0.5-8.4C83.8,139.5,77.7,136.4,72.6,138.3z"/><path fill="#000000" d="M100.9,163.2v9.9h9.2h9.2v-9.9v-9.9h-9.2h-9.2V163.2L100.9,163.2z"/><path fill="#000000" d="M126.4,163.2v9.9h9.5h9.5v-9.9v-9.9h-9.5h-9.5V163.2z"/><path fill="#000000" d="M153.8,163.2v9.9h9.5h9.5v-9.9v-9.9h-9.5h-9.5V163.2z"/><path fill="#000000" d="M180.3,163.2v9.9h9.2h9.2v-9.9v-9.9h-9.2h-9.2V163.2z"/><path fill="#000000" d="M37.4,208.8c-2.6,0.9-5.1,3.1-6.3,5.5c-2.4,4.7-1.8,8.7,2,12.4c3.6,3.6,7.8,4.5,12.1,2.6c2.7-1.2,4.1-2.5,5.5-5.2c2.2-4.3,1.2-9.2-2.5-12.8C45.1,208.4,41.2,207.4,37.4,208.8z"/></g></g></g>
</svg>